<svg width="69" height="119" viewBox="0 0 69 119" fill="none" xmlns="http://www.w3.org/2000/svg">
<path d="M15.0233 3V31L9.02328 34V6L15.0233 3Z" fill="#0038FF"/>
<path d="M9.02328 34L3.02328 31V3L9.02328 5.44737V34Z" fill="#FFD809"/>
<path d="M27.0233 50L27.0233 43L3.02331 31L3.05441 37.9999L27.0233 50Z" fill="#FFD809"/>
<path d="M27.0233 43L33.0233 40L15.0233 31L9.02332 34L27.0233 43Z" fill="#4810BE"/>
<path d="M9.02328 6L3.02328 3L9.02328 0L15.0233 3L9.02328 6Z" fill="#4810BE"/>
<path d="M27.0233 50V43L33.0233 40V47L27.0233 50Z" fill="#0038FF"/>
<path d="M49.1374 19.9157V46.9157L43.1473 49.9157L43.1472 22.9157L49.1374 19.9157Z" fill="#0038FF"/>
<path d="M43.1472 50.9157L37.1078 47.9157V19.9157L43.1078 22.9157L43.1472 50.9157Z" fill="#FFD809"/>
<path d="M55.1078 55.9158L61.1078 52.9158L49.1078 46.9157L43.1078 49.9157L55.1078 55.9158Z" fill="#4810BE"/>
<path d="M61.1078 24.9158L67.1078 21.9157L43.1078 9.91577L37.1177 12.9158L61.1078 24.9158Z" fill="#4810BE"/>
<path d="M61.1176 65.9157V24.9157L67.1078 21.9157V62.9157L61.1176 65.9157Z" fill="#0038FF"/>
<path d="M61.0944 59.9158L55.1042 56.9158V27.9158L61.1078 30.9158L61.0944 59.9158Z" fill="#FFD809"/>
<path d="M61.1078 31.9158L61.1078 24.9158L37.1078 12.9157L37.1078 19.9158L61.1078 31.9158Z" fill="#FFD809"/>
<path d="M61.1078 65.9157L61.1078 58.9157L37.1078 46.9157L37.1078 53.9157L61.1078 65.9157Z" fill="#FFD809"/>
<path d="M50.1374 70.9157V97.9157L44.1473 100.916L44.1472 73.9157L50.1374 70.9157Z" fill="#0038FF"/>
<path d="M44.1472 101.916L38.1078 98.9157V70.9157L44.1078 73.9157L44.1472 101.916Z" fill="#FFD809"/>
<path d="M56.1078 106.916L62.1078 103.916L50.1078 97.9157L44.1078 100.916L56.1078 106.916Z" fill="#4810BE"/>
<path d="M62.1078 75.9158L68.1078 72.9157L44.1078 60.9158L38.1177 63.9158L62.1078 75.9158Z" fill="#4810BE"/>
<path d="M62.1176 116.916V75.9157L68.1078 72.9157V113.916L62.1176 116.916Z" fill="#0038FF"/>
<path d="M62.0944 110.916L56.1042 107.916V78.9158L62.1078 81.9158L62.0944 110.916Z" fill="#FFD809"/>
<path d="M62.1078 82.9158L62.1078 75.9158L38.1078 63.9157L38.1078 70.9158L62.1078 82.9158Z" fill="#FFD809"/>
<path d="M62.1078 116.916L62.1078 109.916L38.1078 97.9157L38.1078 104.916L62.1078 116.916Z" fill="#FFD809"/>
<path d="M15.0544 54.2404V82.4807L9.05441 85.2404V57.2404L15.0544 54.2404Z" fill="#0038FF"/>
<path d="M9.05441 85.2404L3.05441 82.2404V54.2404L9.05441 57.2404V85.2404Z" fill="#FFD809"/>
<path d="M27.0544 101.24L27.0544 94.2404L3.08552 82.2403L3.08552 89.2403L27.0544 101.24Z" fill="#FFD809"/>
<path d="M21 91.2404L27 88.2404L15.0544 82.4807L9 85.2404L21 91.2404Z" fill="#4810BE"/>
<path d="M27 59.2404L33 56.2404L9 44.2404L3 47.2404L27 59.2404Z" fill="#4810BE"/>
<path d="M27 76.2404L33 73.2404L19 66.2404L13 69.2404L27 76.2404Z" fill="#4810BE"/>
<path d="M27.0544 101.24V76.2404L33.0544 73.2404V98.2404L27.0544 101.24Z" fill="#0038FF"/>
<path d="M27 66.2404V59.2404L33 56.2404V63.2404L27 66.2404Z" fill="#0038FF"/>
<path d="M27.0311 94.4807L21.0311 91.4807L21.0311 73.2404L27.0311 76.2404V94.4807Z" fill="#FFD809"/>
<path d="M27.0311 66.2404L27.0311 59.2404L3.0311 47.2404L3.0311 54.2404L27.0311 66.2404Z" fill="#FFD809"/>
<path d="M21.0311 80.2404L21.0311 73.2404L13 69.2404L13 76.2404L21.0311 80.2404Z" fill="#FFD809"/>
</svg>
